<svg xmlns="http://www.w3.org/2000/svg" width="118" height="76" viewBox="0 0 118 76" fill="none"><path d="M22.112 39a4.136 4.136 0 1 0 0-8.273 4.136 4.136 0 0 0 0 8.273" fill="#2E2A42"/><path d="M11.713 43.723v-.008c-.724-5.225.169-9.321 2.733-12.526 3.685-4.65 9.867-5.44 14.355-4.16a1.406 1.406 0 0 0 1.779-1.125c.302-1.866.835-4.082 1.354-5.642.123-.37.093-.762-.094-1.104a1.4 1.4 0 0 0-.865-.697c-1.333-.377-6.068-1.535-11.06-.503-5.55 1.112-8.305 3.263-9.603 4.478v-3.2a1.41 1.41 0 0 0-1.648-1.391c-2.455.427-4.164.59-6.531.626-.74.01-1.349.594-1.386 1.33C-.416 41.212 5.37 55.717 7.17 59.654c.229.5.732.823 1.278.823h.01c.87-.005 1.718-.023 2.561-.036 1.48-.027 2.876-.052 4.34-.027.498.01.958-.24 1.223-.664.264-.423.287-.941.058-1.384-1.762-3.427-4.486-10.655-4.93-14.635v-.005z" fill="#2E2A42"/><path d="M72.306 60.41c4 0 8.136-.66 11.198-1.802.41-.153.717-.475.85-.89a1.4 1.4 0 0 0-.18-1.228c-1.105-1.625-2.328-4.275-2.828-5.8a1.4 1.4 0 0 0-.705-.814 1.4 1.4 0 0 0-1.08-.076c-3.101 1.044-6.737 2.013-10.375 1.45 6.592-6.446 9.842-13.878 8.93-20.46C77.21 23.725 71.281 18.655 64.35 19c-4.131.158-8.038 2.498-10.713 6.41-2.465 3.349-3.728 7.636-3.552 12.069.178 4.933 1.602 9.743 4.02 13.603-1.615.382-3.17.412-4.506.075-2.624-.805-4.561-2.802-5.754-5.942-2.704-6.657-.17-17.842 1.583-23.913 1.716-5.832 3.444-9.628 6.921-16.464.184-.362.204-.785.053-1.16a1.43 1.43 0 0 0-.835-.81c-2.395-.865-3.857-1.502-5.872-2.44a1.413 1.413 0 0 0-1.842.611c-4.667 8.677-5.937 12.763-7.404 17.495l-.154.493c-3.824 11.468-4.068 22.092-.697 29.889.27.802.634 1.502 1.02 2.241q.137.26.276.536c-1.492.981-3.172 1.208-5.122.687-2.876-.86-4.73-4.513-4.725-9.304a1.4 1.4 0 0 0-.468-1.044 1.42 1.42 0 0 0-1.1-.35l-5.6.622a1.42 1.42 0 0 0-1.253 1.45c.144 4.626 2.25 11.077 5.518 13.849 4.138 3.796 11.57 2.848 14.101 2.159 1.527-.509 2.71-1.168 4.21-2l.054-.03c1.377.842 2.94 1.526 4.647 2.037 4.212 1.178 9.307.458 14.364-2.03 1.896 1.617 5.424 2.56 9.975 2.664.27.005.536.008.81.008M61.47 45.903a20.15 20.15 0 0 1-2.4-8.611c0-3.103 1.608-8.967 5.47-9.136 2.41 0 4.103 1.573 4.422 4.106.562 4.504-3.622 10.099-7.492 13.641" fill="#2E2A42"/><path d="M116.04 20.141a1.4 1.4 0 0 0-.642-.903 1.4 1.4 0 0 0-1.092-.156c-2.101.571-3.882 1.007-6.269 1.42-.38.065-.707.276-.921.595-.214.317-.287.7-.207 1.072 1.429 6.544 1.475 13.533.119 19.174-1.324 5.507-3.802 9.117-6.808 9.91-1.276.364-2.358.123-3.306-.74-3.522-3.203-4.02-14.142-2.828-20.572a1.387 1.387 0 0 0-1.082-1.618c-2.274-.486-3.749-.835-5.973-1.51a1.4 1.4 0 0 0-1.776 1.05c-1.597 7.464-1.456 14.858.39 20.82 1.85 5.968 5.316 10.029 9.797 11.516-2.89 1.952-11.21 6.687-23.274 6.29a1.37 1.37 0 0 0-1.032.407c-.272.272-.422.65-.41 1.034.048 1.512.018 2.931-.013 4.433q-.02.92-.032 1.864c-.01.76.578 1.381 1.338 1.414q.914.041 1.85.04c5.313 0 11.074-.966 16.423-2.77 5.832-1.967 10.763-4.77 13.888-7.892 6.619-6.619 16.959-21.249 11.86-44.878" fill="#2E2A42"/></svg>